<svg xmlns="http://www.w3.org/2000/svg" width="1200" height="630" viewBox="0 0 1200 630"><rect width="1200" height="630" fill="#0a0b0e"/><g opacity=".35" stroke="#10202c"><path d="M0 90h1200M0 180h1200M0 270h1200M0 360h1200M0 450h1200M0 540h1200M100 0v630M200 0v630M300 0v630M400 0v630M500 0v630M600 0v630M700 0v630M800 0v630M900 0v630M1000 0v630M1100 0v630"/></g><rect x="86" y="95" width="30" height="30" rx="3" fill="none" stroke="#4fd6e6" stroke-width="3"/><rect x="94" y="103" width="14" height="14" rx="1" fill="#4fd6e6"/><text x="133" y="121" fill="#f4f6fa" font-family="Arial,sans-serif" font-size="31" font-weight="700" letter-spacing="3">STARIXIS</text><text x="84" y="300" fill="#f6f8fc" font-family="Arial,sans-serif" font-size="64" font-weight="600">Intelligence for the</text><text x="84" y="380" fill="#4fd6e6" font-family="Arial,sans-serif" font-size="64" font-weight="600">future of retail.</text><text x="86" y="465" fill="#9aa4b2" font-family="Arial,sans-serif" font-size="24">Connected systems. Clearer understanding. Better decisions.</text></svg>
