<svg xmlns="http://www.w3.org/2000/svg" width="1200" height="630" viewBox="0 0 1200 630"><defs><linearGradient id="starixis-gradient" x1="0" y1="0" x2="100" y2="100" gradientUnits="userSpaceOnUse"><stop offset="0" stop-color="#4F7DFF"/><stop offset=".5" stop-color="#8B5CF6"/><stop offset="1" stop-color="#FF8A4C"/></linearGradient></defs><rect width="1200" height="630" fill="#0a0b0e"/><g opacity=".35" stroke="#10202c"><path d="M0 90h1200M0 180h1200M0 270h1200M0 360h1200M0 450h1200M0 540h1200M100 0v630M200 0v630M300 0v630M400 0v630M500 0v630M600 0v630M700 0v630M800 0v630M900 0v630M1000 0v630M1100 0v630"/></g><g transform="translate(80 86) scale(.42)"><path d="M6 72V30Q6 6 30 6h42" fill="none" stroke="url(#starixis-gradient)" stroke-width="6.5" stroke-linecap="round"/><path d="M94 28v42q0 24-24 24H28" fill="none" stroke="url(#starixis-gradient)" stroke-width="6.5" stroke-linecap="round"/><path d="m50 27 4.2 18.8L66.6 50l-12.4 4.2L50 73l-4.2-18.8L33.4 50l12.4-4.2Z" fill="url(#starixis-gradient)"/><circle cx="64" cy="34" r="3.4" fill="url(#starixis-gradient)"/></g><text x="133" y="121" fill="#f4f6fa" font-family="Arial,sans-serif" font-size="31" font-weight="700" letter-spacing="3">STARIXIS</text><text x="84" y="300" fill="#f6f8fc" font-family="Arial,sans-serif" font-size="64" font-weight="600">Connected technology for</text><text x="84" y="380" fill="#4fd6e6" font-family="Arial,sans-serif" font-size="64" font-weight="600">the future of retail.</text><text x="86" y="465" fill="#9aa4b2" font-family="Arial,sans-serif" font-size="24">Systems. Operations. Information. Experiences.</text></svg>
